<?xml version="1.0" encoding="utf-8"?>
<!-- Generator: Adobe Illustrator 24.0.3, SVG Export Plug-In . SVG Version: 6.00 Build 0)  -->
<svg version="1.1" id="Ebene_1" xmlns="http://www.w3.org/2000/svg" xmlns:xlink="http://www.w3.org/1999/xlink" x="0px" y="0px"
	 viewBox="0 0 127.56 14.82" style="enable-background:new 0 0 127.56 14.82;" xml:space="preserve">
<style type="text/css">
	.st0{fill:#1E2345;}
</style>
<g>
	<path class="st0" d="M0,7.59c0-0.97,0.18-1.89,0.55-2.75c0.37-0.86,0.88-1.63,1.54-2.3c0.66-0.66,1.42-1.19,2.28-1.56
		c0.86-0.37,1.79-0.56,2.78-0.56c0.97,0,1.89,0.19,2.75,0.56c0.86,0.37,1.63,0.89,2.3,1.56c0.66,0.66,1.18,1.43,1.56,2.3
		c0.37,0.86,0.56,1.79,0.56,2.77s-0.19,1.91-0.56,2.77c-0.38,0.86-0.89,1.62-1.55,2.28c-0.66,0.65-1.42,1.16-2.29,1.53
		c-0.86,0.37-1.79,0.55-2.77,0.55c-0.99,0-1.92-0.18-2.78-0.54c-0.86-0.36-1.62-0.87-2.28-1.52c-0.66-0.65-1.17-1.41-1.54-2.27
		C0.18,9.56,0,8.62,0,7.59z M1.94,7.59c0,0.75,0.13,1.44,0.4,2.08c0.26,0.64,0.64,1.2,1.12,1.69s1.04,0.88,1.67,1.15
		c0.63,0.28,1.31,0.42,2.04,0.42c0.74,0,1.42-0.14,2.04-0.42c0.63-0.28,1.17-0.66,1.65-1.14c0.47-0.48,0.84-1.05,1.12-1.69
		c0.27-0.65,0.41-1.34,0.41-2.07c0-0.75-0.14-1.45-0.41-2.09c-0.27-0.65-0.64-1.22-1.12-1.72S9.83,2.92,9.19,2.65
		C8.55,2.37,7.87,2.23,7.15,2.23c-0.74,0-1.42,0.14-2.06,0.43S3.89,3.33,3.42,3.82S2.58,4.88,2.32,5.53
		C2.07,6.18,1.94,6.87,1.94,7.59z"/>
	<path class="st0" d="M21.35,0.58h1.88v12.21h7.11v1.8h-8.99V0.58z"/>
	<path class="st0" d="M35.89,14.59L41.99,0h0.12l6.12,14.59h-2.15L41.5,2.95l1.34-0.87l-5.1,12.52H35.89z"/>
</g>
<path class="st0" d="M60.09,14.67V0.21h0.02l7.34,10.44l-0.79-0.17L74,0.21h0.02v14.45h-1.88V4.48l0.14,0.95l-5.27,7.48h-0.04
	L61.6,5.42l0.31-0.87v10.12H60.09z"/>
<path class="st0" d="M83.61,9.71c0,0.63,0.15,1.2,0.46,1.69c0.3,0.5,0.71,0.89,1.22,1.17c0.51,0.29,1.08,0.43,1.7,0.43
	c0.66,0,1.25-0.14,1.76-0.43c0.52-0.28,0.92-0.67,1.21-1.17c0.29-0.5,0.44-1.06,0.44-1.69V0.66h1.86v9.11c0,1.02-0.23,1.91-0.7,2.67
	c-0.46,0.76-1.1,1.35-1.9,1.76c-0.8,0.41-1.69,0.62-2.67,0.62c-0.97,0-1.85-0.21-2.65-0.62c-0.8-0.41-1.43-1-1.9-1.76
	c-0.46-0.76-0.7-1.65-0.7-2.67V0.66h1.88V9.71z"/>
<path class="st0" d="M103.69,0.66c0.71,0,1.37,0.09,1.97,0.28c0.6,0.19,1.12,0.46,1.57,0.83c0.44,0.37,0.79,0.82,1.05,1.37
	c0.25,0.54,0.38,1.16,0.38,1.86c0,0.56-0.08,1.1-0.24,1.63c-0.16,0.53-0.43,1.01-0.79,1.44c-0.37,0.43-0.85,0.78-1.45,1.05
	c-0.6,0.26-1.35,0.4-2.24,0.4h-2.07v5.15h-1.88V0.66H103.69z M103.88,7.69c0.55,0,1.02-0.08,1.39-0.25
	c0.37-0.17,0.66-0.38,0.86-0.65c0.21-0.26,0.35-0.54,0.44-0.84s0.14-0.59,0.14-0.87c0-0.28-0.05-0.57-0.15-0.87
	c-0.1-0.3-0.25-0.58-0.46-0.84s-0.49-0.48-0.83-0.65c-0.34-0.17-0.76-0.25-1.25-0.25h-2.17v5.23H103.88z M106.19,8.78l3.66,5.89
	h-2.17l-3.74-5.83L106.19,8.78z"/>
<polyline class="st0" points="125.41,14.67 120.84,3.02 122.17,2.15 117.08,14.67 115.22,14.67 121.32,0.08 121.44,0.08 
	127.56,14.67 "/>
</svg>
